<svg id="Ebene_1" data-name="Ebene 1" xmlns="http://www.w3.org/2000/svg" viewBox="0 0 283.46 283.46"><defs><style>.cls-1{fill:#1d71b8;}</style></defs><path class="cls-1" d="M75.8,29.07a296.52,296.52,0,0,1,44-3.33c29.71,0,50.86,6.89,64.89,20,14.26,13.07,22.58,31.61,22.58,57.52,0,26.14-8.09,47.53-23.06,62.27-15,15-39.69,23.05-70.83,23.05a333.52,333.52,0,0,1-37.56-1.9ZM96.48,170.73c5.23,1,12.84,1.19,20.92,1.19,44.21,0,68.22-24.72,68.22-68,.23-37.79-21.16-61.8-64.89-61.8a117.43,117.43,0,0,0-24.25,2.14Z"/><path class="cls-1" d="M135.14,97.52h20.68V240.37h68.45v17.35H135.14Z"/></svg>